<svg xmlns="http://www.w3.org/2000/svg" xmlns:xlink="http://www.w3.org/1999/xlink" aria-hidden="true" role="img" width="1em" height="1em" preserveAspectRatio="xMidYMid meet" viewBox="0 0 256 256"><path d="M241.28 70.454a19.882 19.882 0 0 0-20.883-2.874l-47.239 20.996l-27.675-49.815a20 20 0 0 0-34.966-.001L82.842 88.576l-47.25-21a20 20 0 0 0-27.59 22.85L33.446 198.76a20.066 20.066 0 0 0 24.866 14.682a261.895 261.895 0 0 1 139.33-.013a20.012 20.012 0 0 0 24.858-14.674l25.49-108.318a19.883 19.883 0 0 0-6.71-19.983zM56.81 193.272l-.001-.008l.002.01zm143.276-4.04a286.037 286.037 0 0 0-144.22.013L33.206 92.78l43.231 19.214a19.9 19.9 0 0 0 25.607-8.562L128 56.71l25.957 46.723a19.9 19.9 0 0 0 25.605 8.56l43.22-19.209zm-28.149-34.373a11.99 11.99 0 0 1-13.16 10.714a302.376 302.376 0 0 0-61.553 0a12 12 0 1 1-2.448-23.875a326.49 326.49 0 0 1 66.448 0a12 12 0 0 1 10.714 13.161z" fill="#ffc076"/></svg>
