<svg xmlns="http://www.w3.org/2000/svg" xmlns:xlink="http://www.w3.org/1999/xlink" aria-hidden="true" role="img" width="1em" height="1em" preserveAspectRatio="xMidYMid meet" viewBox="0 0 256 256"><path d="M215.994 96A88 88 0 1 0 72 163.837V240a8 8 0 0 0 11.578 7.155l44.415-22.21l44.43 22.21A8 8 0 0 0 184 240v-76.172A87.86 87.86 0 0 0 215.994 96zm-160 0a72 72 0 1 1 72 72a72.081 72.081 0 0 1-72-72zM168 227.057l-36.43-18.213a8 8 0 0 0-7.156 0L88 227.055v-52.679a87.906 87.906 0 0 0 80-.006zM127.994 152a56 56 0 1 0-56-56a56.063 56.063 0 0 0 56 56zm0-96a40 40 0 1 1-40 40a40.046 40.046 0 0 1 40-40z" fill="#ffc076"/></svg>